<?xml version="1.0" encoding="utf-8"?>
<!-- Generator: Adobe Illustrator 15.1.0, SVG Export Plug-In . SVG Version: 6.00 Build 0)  -->
<!DOCTYPE svg PUBLIC "-//W3C//DTD SVG 1.1//EN" "http://www.w3.org/Graphics/SVG/1.1/DTD/svg11.dtd">
<svg version="1.1" id="Layer_1" xmlns="http://www.w3.org/2000/svg" xmlns:xlink="http://www.w3.org/1999/xlink" x="0px" y="0px"
	 width="1000px" height="1000px" viewBox="0 0 1000 1000" enable-background="new 0 0 1000 1000" xml:space="preserve">
<path fill="#FFFFFF" d="M500,15.625C232.506,15.625,15.625,232.584,15.625,500c0,267.572,216.881,484.375,484.375,484.375
	S984.375,767.572,984.375,500C984.375,232.584,767.494,15.625,500,15.625z M500,890.625c-215.883,0-390.625-174.67-390.625-390.625
	c0-215.811,174.75-390.625,390.625-390.625c215.803,0,390.625,174.748,390.625,390.625C890.625,715.879,715.955,890.625,500,890.625
	z M709.461,392.188c0,130.961-141.447,132.977-141.447,181.373v12.377c0,12.943-10.494,23.438-23.438,23.438h-89.154
	c-12.943,0-23.438-10.494-23.438-23.438v-16.912c0-69.814,52.93-97.723,92.928-120.148c34.299-19.229,55.32-32.307,55.32-57.771
	c0-33.684-42.967-56.041-77.703-56.041c-45.291,0-66.199,21.439-95.59,58.533c-7.924,10-22.383,11.857-32.551,4.148l-54.344-41.207
	c-9.975-7.563-12.209-21.613-5.164-31.959c46.146-67.762,104.924-105.83,196.436-105.83
	C607.158,218.75,709.461,293.563,709.461,392.188z M582.031,718.75c0,45.232-36.799,82.031-82.031,82.031
	s-82.031-36.799-82.031-82.031s36.799-82.031,82.031-82.031S582.031,673.518,582.031,718.75z"/>
</svg>
